<svg id="visual" viewBox="0 0 900 600" width="900" height="600" xmlns="http://www.w3.org/2000/svg" xmlns:xlink="http://www.w3.org/1999/xlink" version="1.1"><rect x="0" y="0" width="900" height="600" fill="#e9f2f9"></rect><path d="M0 458L21.5 464.2C43 470.3 86 482.7 128.8 488.2C171.7 493.7 214.3 492.3 257.2 494C300 495.7 343 500.3 385.8 498.7C428.7 497 471.3 489 514.2 474.5C557 460 600 439 642.8 438C685.7 437 728.3 456 771.2 471.7C814 487.3 857 499.7 878.5 505.8L900 512L900 601L878.5 601C857 601 814 601 771.2 601C728.3 601 685.7 601 642.8 601C600 601 557 601 514.2 601C471.3 601 428.7 601 385.8 601C343 601 300 601 257.2 601C214.3 601 171.7 601 128.8 601C86 601 43 601 21.5 601L0 601Z" fill="#f9957e"></path><path d="M0 511L21.5 500.2C43 489.3 86 467.7 128.8 460C171.7 452.3 214.3 458.7 257.2 463C300 467.3 343 469.7 385.8 477.8C428.7 486 471.3 500 514.2 510.2C557 520.3 600 526.7 642.8 526.8C685.7 527 728.3 521 771.2 510.3C814 499.7 857 484.3 878.5 476.7L900 469L900 601L878.5 601C857 601 814 601 771.2 601C728.3 601 685.7 601 642.8 601C600 601 557 601 514.2 601C471.3 601 428.7 601 385.8 601C343 601 300 601 257.2 601C214.3 601 171.7 601 128.8 601C86 601 43 601 21.5 601L0 601Z" fill="#f68166"></path><path d="M0 555L21.5 548C43 541 86 527 128.8 520.3C171.7 513.7 214.3 514.3 257.2 513.5C300 512.7 343 510.3 385.8 512.8C428.7 515.3 471.3 522.7 514.2 524.8C557 527 600 524 642.8 521.8C685.7 519.7 728.3 518.3 771.2 517C814 515.7 857 514.3 878.5 513.7L900 513L900 601L878.5 601C857 601 814 601 771.2 601C728.3 601 685.7 601 642.8 601C600 601 557 601 514.2 601C471.3 601 428.7 601 385.8 601C343 601 300 601 257.2 601C214.3 601 171.7 601 128.8 601C86 601 43 601 21.5 601L0 601Z" fill="#f26c4f"></path></svg>