<svg id="visual" viewBox="0 0 900 600" width="900" height="600" xmlns="http://www.w3.org/2000/svg" xmlns:xlink="http://www.w3.org/1999/xlink" version="1.1"><rect x="0" y="0" width="900" height="600" fill="#f26c4f"></rect><defs><linearGradient id="grad1_0" x1="33.3%" y1="100%" x2="100%" y2="0%"><stop offset="20%" stop-color="#fcaf3c" stop-opacity="1"></stop><stop offset="80%" stop-color="#fcaf3c" stop-opacity="1"></stop></linearGradient></defs><defs><linearGradient id="grad1_1" x1="33.3%" y1="100%" x2="100%" y2="0%"><stop offset="20%" stop-color="#fcaf3c" stop-opacity="1"></stop><stop offset="80%" stop-color="#fb8d43" stop-opacity="1"></stop></linearGradient></defs><defs><linearGradient id="grad1_2" x1="33.3%" y1="100%" x2="100%" y2="0%"><stop offset="20%" stop-color="#f26c4f" stop-opacity="1"></stop><stop offset="80%" stop-color="#fb8d43" stop-opacity="1"></stop></linearGradient></defs><defs><linearGradient id="grad2_0" x1="0%" y1="100%" x2="66.7%" y2="0%"><stop offset="20%" stop-color="#fcaf3c" stop-opacity="1"></stop><stop offset="80%" stop-color="#fcaf3c" stop-opacity="1"></stop></linearGradient></defs><defs><linearGradient id="grad2_1" x1="0%" y1="100%" x2="66.7%" y2="0%"><stop offset="20%" stop-color="#fb8d43" stop-opacity="1"></stop><stop offset="80%" stop-color="#fcaf3c" stop-opacity="1"></stop></linearGradient></defs><defs><linearGradient id="grad2_2" x1="0%" y1="100%" x2="66.7%" y2="0%"><stop offset="20%" stop-color="#fb8d43" stop-opacity="1"></stop><stop offset="80%" stop-color="#f26c4f" stop-opacity="1"></stop></linearGradient></defs><g transform="translate(900, 600)"><path d="M-459.7 0C-412.4 -41.7 -365.2 -83.5 -351.1 -145.4C-337 -207.4 -356 -289.6 -325.1 -325.1C-294.1 -360.6 -213.3 -349.4 -150.8 -364C-88.3 -378.7 -44.1 -419.2 0 -459.7L0 0Z" fill="#f87c49"></path><path d="M-306.5 0C-275 -27.8 -243.5 -55.6 -234 -96.9C-224.6 -138.3 -237.3 -193 -216.7 -216.7C-196.1 -240.4 -142.2 -232.9 -100.5 -242.7C-58.9 -252.4 -29.4 -279.5 0 -306.5L0 0Z" fill="#fd9e3e"></path><path d="M-153.2 0C-137.5 -13.9 -121.7 -27.8 -117 -48.5C-112.3 -69.1 -118.7 -96.5 -108.4 -108.4C-98 -120.2 -71.1 -116.5 -50.3 -121.3C-29.4 -126.2 -14.7 -139.7 0 -153.2L0 0Z" fill="#fcaf3c"></path></g><g transform="translate(0, 0)"><path d="M459.7 0C418.7 47.5 377.7 95 356.6 147.7C335.5 200.4 334.3 258.2 308.3 308.3C282.3 358.4 231.4 400.8 175.9 424.7C120.4 448.7 60.2 454.2 0 459.7L0 0Z" fill="#f87c49"></path><path d="M306.5 0C279.1 31.7 251.8 63.4 237.7 98.5C223.7 133.6 222.9 172.1 205.5 205.5C188.2 238.9 154.3 267.2 117.3 283.1C80.3 299.1 40.1 302.8 0 306.5L0 0Z" fill="#fd9e3e"></path><path d="M153.2 0C139.6 15.8 125.9 31.7 118.9 49.2C111.8 66.8 111.4 86.1 102.8 102.8C94.1 119.5 77.1 133.6 58.6 141.6C40.1 149.6 20.1 151.4 0 153.2L0 0Z" fill="#fcaf3c"></path></g></svg>